<svg id="visual" viewBox="0 0 2000 600" width="2000" height="600" xmlns="http://www.w3.org/2000/svg" xmlns:xlink="http://www.w3.org/1999/xlink" version="1.1"><path d="M0 150L47.7 177C95.3 204 190.7 258 285.8 284.8C381 311.7 476 311.3 571.2 291.3C666.3 271.3 761.7 231.7 857 216.3C952.3 201 1047.7 210 1143 227.3C1238.3 244.7 1333.7 270.3 1428.8 279.8C1524 289.3 1619 282.7 1714.2 270C1809.3 257.3 1904.7 238.7 1952.3 229.3L2000 220L2000 601L1952.3 601C1904.7 601 1809.3 601 1714.2 601C1619 601 1524 601 1428.8 601C1333.7 601 1238.3 601 1143 601C1047.7 601 952.3 601 857 601C761.7 601 666.3 601 571.2 601C476 601 381 601 285.8 601C190.7 601 95.3 601 47.7 601L0 601Z" fill="#ffb6b6"></path><path d="M0 356L47.7 360.3C95.3 364.7 190.7 373.3 285.8 391.2C381 409 476 436 571.2 431.5C666.3 427 761.7 391 857 397.7C952.3 404.3 1047.7 453.7 1143 461C1238.3 468.3 1333.7 433.7 1428.8 409.8C1524 386 1619 373 1714.2 384.7C1809.3 396.3 1904.7 432.7 1952.3 450.8L2000 469L2000 601L1952.3 601C1904.7 601 1809.3 601 1714.2 601C1619 601 1524 601 1428.8 601C1333.7 601 1238.3 601 1143 601C1047.7 601 952.3 601 857 601C761.7 601 666.3 601 571.2 601C476 601 381 601 285.8 601C190.7 601 95.3 601 47.7 601L0 601Z" fill="#ff7373"></path></svg>